<svg xmlns="http://www.w3.org/2000/svg" viewBox="0 0 512 408.6">
  <path fill="#563D7C" d="M102.3 32.8c20.1-13.8 50.4-32.8 93.3-32.8 94.6 0 94.6 73.2 94.6 91.2 0 47.8-29.8 77.4-66 77.4-8.6 0-20.7-1.2-28.2-3.7v36.7h-52.1v-169zm123 71.4c0-33.8-29-33.8-32.8-33.8h-9.4v67.6h9.4c3.9-.1 32.8-.6 32.8-33.8zm140.3 303.5c20.1-13.8 50.4-32.8 93.3-32.8 94.6 0 94.6 73.2 94.6 91.2 0 47.8-29.8 77.4-66 77.4-8.6 0-20.7-1.2-28.2-3.7v36.7h-52.1v-169zm123 71.4c0-33.8-29-33.8-32.8-33.8h-9.4v67.6h9.4c3.9-.1 32.8-.6 32.8-33.8z"/>
  <path fill="#563D7C" d="M416 0h-320c-52.9 0-96 43.1-96 96v320c0 52.9 43.1 96 96 96h320c52.9 0 96-43.1 96-96v-320c0-52.9-43.1-96-96-96zm-74.3 228.3c-4.6 23.1-21.9 40.1-53 44.1 26.5 5.3 42.6 20.1 48.3 44.1 5.3 23.8 1.5 40.9-4.1 52.9-9.6 20.1-29.2 34.6-61.6 34.6h-109.5c-3.9 0-7.4-2.6-8.2-6.3l-29.6-141c-1-4.1 1.9-8.1 6-8.1h44.6c3.7 0 6.9 2.6 7.8 6.3l11.5 54.6c1 5.3 5.6 8.2 10.8 8.2 15.7 0 26.2-6.3 30.7-20.6 4.1-14.1 2.6-21.9-3.4-28.9-4.9-5.6-12-8.7-21.4-8.7h-20.4c-4.9 0-9-3.4-10.3-8.1l-15.7-77.7c-1-4.1 1.9-8.1 6-8.1h100.6c30.2 0 49.2 6.3 61.6 17.9 11.5 11.6 15.8 28.6 11.6 48.2z"/>
</svg>
