<svg
  xmlns="http://www.w3.org/2000/svg"
  viewBox="0 0 128 128"
  width="100"
  height="100"
>
  <path fill="#1572B6" d="M19.6 3.8L10.5 116.6 63.8 127 117.2 116.6 108.1 3.8z"></path>
  <path fill="#33A9DC" d="M64 119.2l40.9-11.4L108.1 10.5 64 10.5z"></path>
  <path fill="#fff" d="M64 26.6H38.4L40 45.1H64V45.1 45.1H50L50.5 51.6H64V51.6 51.6H51.3L52.8 68.6H64V68.6 68.6H40.9L43.1 93.4H64V93.4 93.4H77.2L75.7 108.1 64 111.1 52.3 108.1 51.4 99.1H37.9L39.6 116.6 63.9 123.4 88.2 116.6 91 85.3 87.2 51.6 87.2 51.6 87.2 51.6 64 51.6z"></path>
  <path fill="#EBEBEB" d="M64 51.6V45.1 45.1 45.1 51.6V51.6 51.6V51.6 51.6 51.6 51.6H77.3 77.3 77.3H77.3H77.3L78.7 45.1H64zM64 93.4V93.4H64V93.4 93.4 93.4H77.2L75.7 108.1 64 111.1V93.4H64z"></path>
</svg>
