<svg
  xmlns="http://www.w3.org/2000/svg"
  viewBox="0 0 630 630"
  width="100"
  height="100"
>
  <rect width="630" height="630" fill="#F7DF1E" />
  <path
    d="M423.3 492.19c9.47 15.506 21.715 26.988 43.429 26.988 18.22 0 29.821-9.114 29.821-21.715 0-15.03-11.896-20.36-32.029-29.114l-11.016-4.734c-31.823-13.557-52.953-30.556-52.953-66.442 0-33.053 25.175-58.313 64.543-58.313 28.045 0 48.276 9.773 62.861 35.434l-34.43 22.085c-7.56-13.557-15.716-18.906-28.045-18.906-12.768 0-20.84 8.074-20.84 18.906 0 13.243 8.074 18.57 26.798 26.988l11.015 4.733c37.508 16.034 58.639 32.547 58.639 68.92 0 39.478-30.935 61.586-72.427 61.586-40.641 0-66.894-19.36-79.421-44.843l34.434-20.345zm-165.928 3.927c6.668 11.81 12.707 21.756 27.406 21.756 13.992 0 22.78-5.457 22.78-26.675V289.63h42.915v202.61c0 44.442-26.024 64.543-63.998 64.543-34.292 0-54.321-17.83-64.543-39.479l35.44-21.177z"
    fill="#000001"
  />
</svg>
